<?xml version="1.0" encoding="UTF-8" standalone="no"?>
<svg
   xmlns:dc="http://purl.org/dc/elements/1.1/"
   xmlns:cc="http://creativecommons.org/ns#"
   xmlns:rdf="http://www.w3.org/1999/02/22-rdf-syntax-ns#"
   xmlns:svg="http://www.w3.org/2000/svg"
   xmlns="http://www.w3.org/2000/svg"
   xmlns:sodipodi="http://sodipodi.sourceforge.net/DTD/sodipodi-0.dtd"
   xmlns:inkscape="http://www.inkscape.org/namespaces/inkscape"
   width="16"
   height="16"
   version="1.1"
   viewBox="0 0 16 16"
   id="svg6"
   sodipodi:docname="edit.svg"
   inkscape:version="0.92.4 (5da689c313, 2019-01-14)">
  <metadata
     id="metadata12">
    <rdf:RDF>
      <cc:Work
         rdf:about="">
        <dc:format>image/svg+xml</dc:format>
        <dc:type
           rdf:resource="http://purl.org/dc/dcmitype/StillImage" />
        <dc:title></dc:title>
      </cc:Work>
    </rdf:RDF>
  </metadata>
  <defs
     id="defs10" />
  <sodipodi:namedview
     pagecolor="#ffffff"
     bordercolor="#666666"
     borderopacity="1"
     objecttolerance="10"
     gridtolerance="10"
     guidetolerance="10"
     inkscape:pageopacity="0"
     inkscape:pageshadow="2"
     inkscape:window-width="1920"
     inkscape:window-height="1017"
     id="namedview8"
     showgrid="false"
     inkscape:zoom="5.2149125"
     inkscape:cx="17.907085"
     inkscape:cy="15.210507"
     inkscape:window-x="-8"
     inkscape:window-y="-8"
     inkscape:window-maximized="1"
     inkscape:current-layer="svg6" />
  <path
     style="opacity:1;fill:#e0e0e0;fill-opacity:1;stroke:none;stroke-width:0.70352387;stroke-miterlimit:4;stroke-dasharray:none;stroke-dashoffset:0;stroke-opacity:1"
     d="M 8.404054,2.1125564 A 3.8764729,3.8768766 0 0 0 7.5034147,6.1692568 L 1.4068529,12.266454 c -0.54182226,0.541878 -0.54279408,1.414082 -9.716e-4,1.95596 l 0.3711372,0.371176 c 0.5418224,0.54188 1.4149071,0.54188 1.9567293,0 L 9.8303096,8.4963941 A 3.8764729,3.8768766 0 0 0 13.885616,7.5946895 3.8764729,3.8768766 0 0 0 15,5.2209122 L 14.420947,4.6417997 12.853816,6.2090944 10.105263,5.895247 9.7904761,3.1454353 11.357607,1.5781406 10.779527,1 A 3.8764729,3.8768766 0 0 0 8.404054,2.1125564 Z"
     id="rect816"
     inkscape:connector-curvature="0" />
</svg>
